<svg id="Layer_1" data-name="Layer 1" xmlns="http://www.w3.org/2000/svg" viewBox="0 0 318.41 171.32"><defs><style>.cls-1{fill:#fff;}</style></defs><title>logo biznet putih (3)</title><path class="cls-1" d="M133.81,103.75h0c0-7.6,5.51-14.64,13.88-14.64a14.58,14.58,0,0,1,9.5,3,1.44,1.44,0,0,1,.38.76,1,1,0,0,1-.95,1,.7.7,0,0,1-.57-.19,12.25,12.25,0,0,0-8.36-2.86c-6.84,0-11.6,5.71-11.6,12.55h0c0,7.22,4.57,12.55,12,12.55a14.48,14.48,0,0,0,8.93-3.23v-8h-8.55a.95.95,0,0,1,0-1.9H158a1,1,0,0,1,.95,1v9.13a1.37,1.37,0,0,1-.76,1.14,16.4,16.4,0,0,1-10.27,3.61C139.13,118,133.81,111.55,133.81,103.75Z"/><path class="cls-1" d="M164,90.25a1.1,1.1,0,0,1,1.14-1.14,1.27,1.27,0,0,1,1.33,1.14V91c0,.76-.57,1.14-1.33,1.14A1.1,1.1,0,0,1,164,91Zm.19,7.8a.95.95,0,1,1,1.9,0v18.63a1,1,0,0,1-1.9,0Z"/><path class="cls-1" d="M170.5,107.55h0A10.62,10.62,0,0,1,181,96.72a10.46,10.46,0,0,1,10.45,10.64h0A10.46,10.46,0,0,1,181,118,10.31,10.31,0,0,1,170.5,107.55Zm18.82,0h0c0-4.94-3.61-8.93-8.36-8.93a8.53,8.53,0,0,0-8.37,8.74h0a8.41,8.41,0,0,0,8.37,8.75C185.9,116.3,189.32,112.31,189.32,107.55Z"/><path class="cls-1" d="M194.65,103.75h0c0-8,5.89-14.64,14.06-14.64a14,14,0,0,1,10.27,4,1.47,1.47,0,0,1,.38.77,1.06,1.06,0,0,1-1.14.95c-.19,0-.57-.19-.76-.19A12.41,12.41,0,0,0,208.52,91c-6.65,0-11.78,5.52-11.78,12.55h0c0,7,5.13,12.55,11.78,12.55a12.48,12.48,0,0,0,9.13-3.8,1,1,0,0,1,.76-.38,1,1,0,0,1,1,.95,1,1,0,0,1-.38.76A14.43,14.43,0,0,1,208.33,118C200.73,118,194.65,111.74,194.65,103.75Z"/><path class="cls-1" d="M223.73,89.3a.95.95,0,1,1,1.9,0v27.57a1,1,0,0,1-1.9,0Z"/><path class="cls-1" d="M230,107.55h0a10.62,10.62,0,0,1,10.45-10.83,10.46,10.46,0,0,1,10.46,10.64h0A10.46,10.46,0,0,1,240.46,118,10.3,10.3,0,0,1,230,107.55Zm18.82,0h0c0-4.94-3.61-8.93-8.37-8.93a8.52,8.52,0,0,0-8.36,8.74h0a8.41,8.41,0,0,0,8.36,8.75C245.41,116.3,248.83,112.31,248.83,107.55Z"/><path class="cls-1" d="M272,116.68a.95.95,0,1,1-1.9,0v-3a7.76,7.76,0,0,1-7.41,4.18c-5.14,0-8.18-3.61-8.18-8.37V97.86a1,1,0,0,1,1.9,0v11.21c0,4.19,2.28,7,6.47,7a7,7,0,0,0,7-7.23v-11a.95.95,0,1,1,1.9,0v18.82Z"/><path class="cls-1" d="M296.35,116.68a.95.95,0,0,1-1.9,0v-3.8c-1.71,2.66-4.37,4.94-8.36,4.94-4.94,0-9.89-4-9.89-10.65h0c0-6.65,4.95-10.64,9.89-10.64,4,0,6.65,2.28,8.36,4.94V89.3a1,1,0,1,1,1.9,0Zm-18.06-9.32h0c0,5.52,3.81,8.94,8,8.94a8.65,8.65,0,0,0,8.36-8.75h0a8.4,8.4,0,0,0-8.36-8.74C281.91,98.62,278.29,101.85,278.29,107.36Z"/><path class="cls-1" d="M135,50.33a2.6,2.6,0,0,1,2.66-2.66h11.22c3.61,0,6.27.95,8.17,2.66a7,7,0,0,1,2.1,5.13h0a7.14,7.14,0,0,1-4.38,6.85c3.62,1.33,6.09,3.23,6.09,7.6h0c0,5.51-4.57,8.56-11.41,8.56H137.8a2.6,2.6,0,0,1-2.66-2.67V50.33ZM147.69,60.6c3.42,0,5.89-1.33,5.89-4.19h0c0-2.47-1.9-4-5.51-4h-7.79V60.6Zm1.52,13.11c3.8,0,5.89-1.52,5.89-4.18h0c0-2.66-2.09-4.18-6.27-4.18h-8.55V73.9h8.93Z"/><path class="cls-1" d="M163.85,50a2.61,2.61,0,0,1,2.85-2.47c1.71,0,2.85,1,2.85,2.47v.19a2.61,2.61,0,0,1-2.85,2.47c-1.71,0-2.85-1-2.85-2.47Zm.38,8.36a2.69,2.69,0,0,1,2.47-2.66,2.72,2.72,0,0,1,2.66,2.66V76a2.45,2.45,0,0,1-2.66,2.47A2.52,2.52,0,0,1,164.23,76Z"/><path class="cls-1" d="M172.78,76.38h0a3.07,3.07,0,0,1,1.14-2.48l12-13.68H175.26a2.1,2.1,0,1,1,0-4.19h14.82a2.22,2.22,0,0,1,2.48,2.09v.19a3.7,3.7,0,0,1-1.15,2.48l-12,13.68h11a2.1,2.1,0,1,1,0,4.19h-15.2C173.92,78.47,172.78,77.71,172.78,76.38Z"/><path class="cls-1" d="M195.6,58.31a2.69,2.69,0,0,1,2.47-2.66,2.72,2.72,0,0,1,2.66,2.66v1.15c1.52-2.1,3.61-4,7-4,5.14,0,8,3.43,8,8.56V76a2.39,2.39,0,0,1-2.47,2.47A2.56,2.56,0,0,1,210.62,76V65.54c0-3.42-1.72-5.51-4.76-5.51s-5.13,2.09-5.13,5.51V75.8a2.45,2.45,0,0,1-2.66,2.48,2.52,2.52,0,0,1-2.47-2.48Z"/><path class="cls-1" d="M218.6,67.25h0c0-6.46,4.56-11.79,11-11.79,7.22,0,10.64,5.9,10.64,11A2.39,2.39,0,0,1,237.8,69H223.73a6.37,6.37,0,0,0,6.47,5.7,8.64,8.64,0,0,0,5.32-1.9,2.21,2.21,0,0,1,1.33-.38,2.11,2.11,0,0,1,2.09,2.09,2.39,2.39,0,0,1-.76,1.53,11.21,11.21,0,0,1-8,3C223.54,79,218.6,74.28,218.6,67.25Zm16.73-1.52c-.38-3.23-2.28-5.89-5.7-5.89-3.24,0-5.33,2.47-5.9,5.89Z"/><path class="cls-1" d="M244.46,72.19V60.41h-.77a2.29,2.29,0,0,1,0-4.57h.77V52a2.52,2.52,0,0,1,2.47-2.47A2.56,2.56,0,0,1,249.59,52v3.8h4a2.29,2.29,0,0,1,0,4.57h-4v11c0,2.09.95,2.85,2.85,2.85a10.71,10.71,0,0,0,1.33-.19,2.11,2.11,0,0,1,2.09,2.1,2.34,2.34,0,0,1-1.33,2.09,10.28,10.28,0,0,1-3.61.57C247.12,78.85,244.46,77.14,244.46,72.19Z"/><path class="cls-1" d="M253.58,49.38h0a2.47,2.47,0,1,1,4.94,0h0a2.52,2.52,0,0,1-2.47,2.47A2.39,2.39,0,0,1,253.58,49.38Zm4.37,0h0a2.09,2.09,0,1,0-4.18,0h0a2.11,2.11,0,0,0,2.09,2.09A2,2,0,0,0,258,49.38Z"/><path class="cls-1" d="M255.1,48.43a.19.19,0,0,1,.19-.19h1c.38,0,.57.19.76.19a.7.7,0,0,1,.19.57h0c0,.38-.19.57-.57.76l.57.57v.19a.19.19,0,0,1-.19.19c-.19,0-.19,0-.19-.19l-.57-.76h-.57v.76a.19.19,0,1,1-.38,0V48.43Zm1,1c.38,0,.57-.19.57-.38h0c0-.19-.19-.38-.57-.38h-.57v.76Z"/><path class="cls-1" d="M82.51,46.88h0c-1.08,1.5-2.42,3.11-3.86,4.81-4.72,5.61-10.06,12-8.63,18.11,1.56,6.73,8.29,8.54,16.81,10.84a102.58,102.58,0,0,1,12.31,3.92c-9.35-7.77-14.78-11.18-15.18-17-.36-5.2,3.61-8.17,8.15-14.94,6.35-9.4,4.71-19.44-2.37-25.86,1.33,8.49-6.77,19.53-7.22,20.13"/><path class="cls-1" d="M110.8,95.89c-7.27-7.67-16.55-10.18-24.75-12.38C79.15,81.64,73,80,69.52,75.61c2.73,7.91,10,12.59,20.36,20.36,14.08,10.64,16.28,43.52-35,45.72-.32,0-.75.05-1.16.07a.68.68,0,0,0,0,1.36c13.47,3.36,40.51,5,55.09-8.8,10.25-9.7,11.76-25.34,2-38.43"/><path class="cls-1" d="M47.42,140.39C31.3,132,33.32,88.32,33.32,71.26A78.07,78.07,0,0,1,33.75,63a45.67,45.67,0,0,1,1.89-10.5c3-11.38,9.61-23.38,19.17-30.13a58.1,58.1,0,0,0-23,13C19,47.47,15.59,65.25,15.75,84.68c.41,46.93,21.84,54.66,31.19,57h.22a.64.64,0,0,0,.65-.66.67.67,0,0,0-.39-.62"/><path class="cls-1" d="M84.56,23.77a10.6,10.6,0,0,0-3.63-2.1A28.21,28.21,0,0,0,64,21c-6.19,2-12,6.5-16.75,13.2A56.91,56.91,0,0,0,39.81,48.8c8.93-14.42,26.78-20.07,37.76-15.86,3.07,1.17,5.61,3.43,5.9,6.78C86.2,34.6,89,27.83,84.56,23.77"/></svg>